<svg width="132" height="50" viewBox="0 0 132 50" fill="none" xmlns="http://www.w3.org/2000/svg">
<g clip-path="url(#clip0_1750_7171)">
<path d="M93.249 12.53V37.3016H119.02V18.1016H131.897V12.53H93.249Z" fill="white"/>
<path d="M115.792 18.1016H101.625V31.7299H115.792V18.1016Z" fill="#1D1D1B"/>
<path d="M80.3711 0.144287V49.6873H131.896V18.1016H119.019V37.3016H93.2484V12.5301H131.896V0.144287H80.3711Z" fill="#E30613"/>
<path d="M13.0619 2.44517H15.1761C15.7961 2.40137 16.4179 2.50013 16.994 2.73381C17.1566 2.80109 17.3078 2.89299 17.4425 3.00635C17.6414 3.17826 17.7989 3.3931 17.9029 3.63471C18.0069 3.87632 18.0549 4.13841 18.0431 4.40125C18.0736 4.81781 17.9574 5.23193 17.7147 5.5717C17.5623 5.80396 17.349 5.98976 17.0981 6.1088C16.5104 6.38602 15.8656 6.5206 15.2162 6.50161C14.5114 6.50161 13.8067 6.50161 13.126 6.50161L13.0619 2.44517ZM9.77051 9.87984e-05V14.5023H13.0619V8.83449C14.8279 8.93488 16.5995 8.82452 18.3394 8.50578C18.9199 8.34451 19.4638 8.07228 19.941 7.70411C20.402 7.2916 20.7686 6.78449 21.016 6.21728C21.2634 5.65007 21.3857 5.03611 21.3745 4.41729C21.3797 3.49975 21.0999 2.60327 20.5737 1.85195C19.2283 -0.0239531 16.6817 -0.0239258 15.04 -0.0239258L9.77051 9.87984e-05Z" fill="#1D1D1B"/>
<path d="M23.7441 0V14.5022H34.1229V12.041H27.0916V8.13692H33.3781V5.66779H27.0916V2.38095H33.8426V0H23.7441Z" fill="#1D1D1B"/>
<path d="M36.1738 0V2.44509H40.4182V14.5022H43.7497V2.405H47.954V0H36.1738Z" fill="#1D1D1B"/>
<path d="M50.0039 0V14.5022H60.3827V12.041H53.3594V8.13692H59.6379V5.66779H53.3594V2.38095H60.1024V0H50.0039Z" fill="#1D1D1B"/>
<path d="M65.9719 2.24466H68.7267C69.2827 2.2021 69.839 2.32189 70.3284 2.58942C70.4424 2.65329 70.5497 2.72846 70.6487 2.81386C70.8327 2.96719 70.98 3.15982 71.0797 3.37763C71.1795 3.59544 71.2293 3.83289 71.2253 4.07248C71.2726 4.54802 71.1311 5.02307 70.8314 5.39506C70.5318 5.76705 70.0979 6.00611 69.6237 6.0606C69.2345 6.12572 68.8409 6.16057 68.4464 6.16482H66.044L65.9719 2.24466ZM62.7686 0V14.5022H65.9719V8.48968H68.4304C68.9958 8.43204 69.5633 8.57691 70.0321 8.89854C70.6247 9.38755 70.6487 10.0449 70.8329 11.1993C70.9545 12.3306 71.2238 13.441 71.6337 14.5022H75.2615C74.6385 13.4348 74.2533 12.2452 74.1323 11.0149C74.0988 10.098 73.9036 9.19426 73.5557 8.34538C73.4693 8.17977 73.3616 8.02615 73.2354 7.88843C73.103 7.75278 72.952 7.63672 72.7869 7.54372C72.4644 7.33733 72.101 7.20327 71.7218 7.15086C72.0618 7.05899 72.3898 6.92714 72.6988 6.75805C72.924 6.64308 73.1338 6.50037 73.3235 6.33319C73.5616 6.14709 73.7695 5.92536 73.9401 5.67582C74.3071 5.07597 74.4934 4.38288 74.4767 3.67967C74.4961 2.96779 74.3007 2.26658 73.9161 1.66748C73.8049 1.48013 73.6704 1.30771 73.5157 1.1544C72.754 0.501479 71.8015 0.113306 70.8009 0.0480981C70.2643 -1.95612e-06 69.7278 0 69.1992 0H62.7686Z" fill="#1D1D1B"/>
<path d="M13.9263 22.1821C13.9365 21.5127 13.814 20.8479 13.5659 20.2261C13.3886 19.7938 13.1425 19.3931 12.8372 19.0396C11.2355 17.292 8.26445 17.2679 7.75192 17.2679C5.85747 17.1909 3.99244 17.7558 2.45845 18.8713C2.07853 19.2026 1.73491 19.5734 1.43339 19.9775C0.443531 21.3811 -0.0599592 23.0705 -0.000101078 24.7875C-0.0190684 26.209 0.287764 27.6159 0.896824 28.9001C1.2627 29.6486 1.781 30.3122 2.41839 30.8482C4.31636 32.4515 7.00716 32.4515 7.71189 32.4515C8.3502 32.4432 8.98712 32.3896 9.61786 32.2912C11.0111 32.1168 12.3842 31.8081 13.7181 31.3693V24.1542H7.36751V26.6154H10.6429V29.5735C9.70284 29.8282 8.73382 29.9602 7.75993 29.9663C6.92873 30.0005 6.10236 29.824 5.35745 29.4533C4.55662 28.9803 3.62766 27.9942 3.41144 25.9419C3.37852 25.5581 3.36514 25.1728 3.37138 24.7875C3.29131 23.4645 3.6274 22.1497 4.33239 21.0278C4.72401 20.5637 5.21587 20.1948 5.77081 19.949C6.32576 19.7032 6.92926 19.5869 7.5357 19.6088C8.31433 19.5756 9.08398 19.7858 9.73798 20.2101C9.91668 20.3486 10.064 20.5235 10.1704 20.7231C10.4662 21.1634 10.5941 21.6954 10.5308 22.2222L13.9263 22.1821Z" fill="#1D1D1B"/>
<path d="M20.4135 19.8413H23.1683C23.7083 19.8072 24.2469 19.9267 24.7219 20.186C24.8377 20.2471 24.9454 20.3225 25.0423 20.4105C25.2262 20.5639 25.3735 20.7565 25.4733 20.9743C25.5731 21.1921 25.6228 21.4296 25.6189 21.6692C25.6661 22.1447 25.5247 22.6197 25.225 22.9917C24.9253 23.3637 24.4915 23.6028 24.0172 23.6573C23.6302 23.7178 23.2396 23.7526 22.848 23.7615H20.4455L20.4135 19.8413ZM17.1621 17.5967V32.0989H20.4135V26.0864H22.864C23.4298 26.0229 23.9993 26.1682 24.4657 26.4952C25.0663 26.9842 25.0823 27.6415 25.2665 28.7959C25.3918 29.9266 25.6609 31.0366 26.0673 32.0989H29.7271C29.1008 31.0323 28.7129 29.8426 28.5899 28.6116C28.5564 27.6947 28.3612 26.7909 28.0133 25.942C27.9269 25.7764 27.8192 25.6228 27.693 25.4851C27.5606 25.3495 27.4096 25.2333 27.2445 25.1403C26.922 24.934 26.5587 24.8 26.1795 24.7475C26.5195 24.6557 26.8474 24.5238 27.1565 24.3547C27.3816 24.2398 27.5914 24.097 27.7811 23.9299C28.0192 23.7438 28.2272 23.522 28.3977 23.2725C28.7686 22.6743 28.9552 21.9801 28.9343 21.2764C28.9537 20.5645 28.7583 19.8633 28.3737 19.2642C28.2626 19.0768 28.128 18.9044 27.9733 18.7511C27.2091 18.1011 26.2585 17.7109 25.2585 17.6368C24.7219 17.6368 24.1934 17.6368 23.6568 17.6368L17.1621 17.5967Z" fill="#1D1D1B"/>
<path d="M38.2475 19.657C38.9904 19.5759 39.7383 19.7574 40.3616 20.1701C40.7617 20.4181 41.0989 20.7556 41.3467 21.1561C41.9525 22.3127 42.2607 23.6022 42.2436 24.9079C42.2951 26.2357 41.9613 27.5499 41.2826 28.6918C41.0663 28.9752 40.8162 29.2309 40.5378 29.4534C39.9244 29.9069 39.178 30.1437 38.4156 30.1268C37.8012 30.1479 37.1929 29.998 36.6585 29.6937C36.1241 29.3894 35.6844 28.9427 35.3885 28.4032C34.853 27.3394 34.5785 26.1633 34.5877 24.9721C34.5908 24.3041 34.6605 23.638 34.7959 22.9839C34.9078 22.3839 35.1189 21.8069 35.4205 21.2764C35.6225 20.9181 35.8949 20.6045 36.2213 20.3545C36.786 19.9047 37.4858 19.6589 38.2074 19.657M38.4637 17.252C37.184 17.2335 35.9201 17.5366 34.7879 18.1338C34.307 18.3721 33.8622 18.677 33.4665 19.0397C33.1773 19.3213 32.9097 19.6241 32.6657 19.9456C31.6847 21.3555 31.1694 23.0376 31.1921 24.7556C31.1943 25.5243 31.2802 26.2904 31.4484 27.0404C31.628 27.8097 31.9166 28.5494 32.3053 29.237C32.9483 30.2602 33.8496 31.0955 34.9182 31.6586C35.9869 32.2216 37.185 32.4924 38.3916 32.4436C39.7955 32.5059 41.1841 32.1307 42.366 31.3697C43.5479 30.6087 44.4648 29.4994 44.9904 28.1948C45.4235 27.1025 45.6489 25.9388 45.6551 24.7636C45.6615 23.1281 45.2182 21.5223 44.3738 20.122C44.0666 19.6763 43.7062 19.2698 43.3007 18.9115C43.0277 18.6519 42.7269 18.4233 42.4037 18.23C41.2114 17.5629 39.8612 17.2306 38.4957 17.2681" fill="#1D1D1B"/>
<path d="M59.7342 21.7893C59.7505 21.0413 59.5827 20.3007 59.2457 19.6328C59.0418 19.2575 58.7703 18.9232 58.4449 18.6468C58.191 18.4368 57.9235 18.244 57.644 18.0696C56.5692 17.5119 55.3707 17.236 54.1604 17.268C53.0644 17.2388 51.9742 17.4353 50.9571 17.8451C50.1273 18.145 49.4065 18.6874 48.8882 19.402C48.3699 20.1167 48.0779 20.9708 48.0501 21.8535C48.0312 22.3277 48.1176 22.8001 48.3032 23.2368C48.4887 23.6735 48.7688 24.0635 49.1232 24.3787C49.8591 25.009 50.7396 25.4469 51.6859 25.6534C52.3426 25.8378 53.0072 26.0222 53.6719 26.1825C55.0814 26.5513 55.8101 26.6795 56.2986 27.2327C56.4165 27.3624 56.5076 27.5142 56.5667 27.6793C56.6258 27.8444 56.6518 28.0195 56.643 28.1946C56.6481 28.6083 56.507 29.0105 56.2447 29.3303C55.9825 29.65 55.6159 29.8668 55.2095 29.9423C54.7812 30.0839 54.3308 30.1463 53.8801 30.1267C53.0068 30.1738 52.1481 29.8873 51.4777 29.325C51.2577 29.0631 51.095 28.7581 50.9998 28.4296C50.9046 28.101 50.8792 27.7561 50.9251 27.4171H47.5936C47.5661 28.3209 47.7413 29.2194 48.1062 30.0465C48.8349 31.4174 50.5086 32.0988 52.0382 32.3633C52.5895 32.4456 53.1468 32.4804 53.704 32.4675C54.9783 32.5196 56.2459 32.2581 57.3958 31.706C57.8069 31.5305 58.19 31.2955 58.533 31.0085C59.0254 30.5985 59.4234 30.0867 59.6999 29.5084C59.9763 28.93 60.1246 28.2986 60.1346 27.6575C60.1365 27.1028 60.0133 26.5547 59.7742 26.0542C59.6193 25.7993 59.4395 25.5603 59.2377 25.3407L58.9173 25.0682C57.8862 24.3514 56.7011 23.8873 55.4578 23.7134C54.4871 23.503 53.5298 23.2353 52.5908 22.9117C52.2733 22.7868 51.9845 22.5986 51.7419 22.3585C51.5412 22.0996 51.4339 21.7803 51.4376 21.4526C51.4383 21.2328 51.4842 21.0155 51.5724 20.8141C51.6605 20.6128 51.7891 20.4317 51.9501 20.2822C52.2327 20.02 52.5664 19.8192 52.9302 19.6922C53.2941 19.5653 53.6802 19.5151 54.0643 19.5447C55.3697 19.5447 56.2666 19.9695 56.4668 21.2843C56.4842 21.4682 56.4842 21.6535 56.4668 21.8374L59.7342 21.7893Z" fill="#1D1D1B"/>
<path d="M74.1809 21.7813C74.1924 21.0337 74.0249 20.2943 73.6924 19.6249C73.4855 19.2515 73.2144 18.9177 72.8916 18.6388C72.6403 18.4279 72.3725 18.2375 72.0907 18.0696C71.0152 17.5138 69.8172 17.2381 68.6071 17.268C67.5111 17.2388 66.4209 17.4353 65.4038 17.8451C64.574 18.145 63.8532 18.6874 63.3349 19.402C62.8166 20.1167 62.5246 20.9708 62.4968 21.8535C62.4769 22.327 62.5621 22.7991 62.7462 23.2358C62.9304 23.6724 63.209 24.0628 63.5619 24.3787C64.2982 25.0085 65.1785 25.4463 66.1245 25.6534C66.7892 25.8378 67.4539 26.0221 68.1106 26.1905C69.5201 26.5592 70.2488 26.6795 70.7373 27.2327C70.8558 27.3636 70.9473 27.5167 71.0064 27.6832C71.0655 27.8497 71.0911 28.0262 71.0817 28.2027C71.0848 28.615 70.9429 29.0153 70.6808 29.3333C70.4187 29.6514 70.0532 29.867 69.6482 29.9423C69.2236 30.0885 68.7754 30.1537 68.3268 30.1347C67.4535 30.1819 66.5948 29.8953 65.9243 29.333C65.7018 29.0728 65.5374 28.7679 65.4421 28.4389C65.3468 28.1098 65.3228 27.7642 65.3718 27.4251H62.0323C62.0089 28.3294 62.1868 29.2275 62.5529 30.0545C63.2736 31.4334 64.9553 32.1068 66.4769 32.3714C67.0278 32.4574 67.5854 32.4923 68.1426 32.4756C69.4197 32.5303 70.6906 32.2687 71.8425 31.714C72.2498 31.5359 72.63 31.3011 72.9716 31.0165C73.4647 30.6088 73.8632 30.0986 74.1398 29.5214C74.4163 28.9442 74.5643 28.3137 74.5733 27.6736C74.5732 27.1181 74.4473 26.5699 74.2049 26.0703C74.0593 25.8088 73.8817 25.5664 73.6764 25.3487C73.5643 25.2686 73.4601 25.1644 73.356 25.0842C72.3263 24.3591 71.1366 23.8943 69.8884 23.7294C68.9211 23.5165 67.9666 23.2488 67.0295 22.9277C66.7092 22.8037 66.4176 22.6154 66.1726 22.3746C65.9769 22.1135 65.8728 21.7951 65.8763 21.4687C65.877 21.2488 65.9229 21.0315 66.011 20.8302C66.0992 20.6288 66.2278 20.4477 66.3888 20.2982C66.6706 20.0348 67.0042 19.8332 67.3682 19.7062C67.7322 19.5792 68.1187 19.5297 68.503 19.5607C69.8084 19.5607 70.7053 19.9936 70.9055 21.3083C70.9273 21.4921 70.9273 21.6778 70.9055 21.8615L74.1809 21.7813Z" fill="#1D1D1B"/>
<path d="M35.4123 43.25H38.2072C38.6604 43.2577 39.1114 43.3142 39.5526 43.4184C39.7558 43.4908 39.9494 43.5877 40.1292 43.707C40.3868 43.8851 40.5953 44.1254 40.7353 44.4057C40.8753 44.686 40.9423 44.9972 40.93 45.3103C40.9643 45.597 40.9206 45.8875 40.8036 46.1514C40.6867 46.4153 40.5007 46.6426 40.2653 46.8094C39.709 47.2118 39.0274 47.4023 38.3433 47.3466H35.4203L35.4123 43.25ZM35.4123 37.5021H37.6306C38.2645 37.4697 38.898 37.5735 39.4885 37.8067C39.6858 37.8919 39.8608 38.0216 39.9997 38.1858C40.1386 38.3499 40.2378 38.5439 40.2893 38.7527C40.3553 38.8928 40.3855 39.047 40.3774 39.2016C40.3626 39.5351 40.2663 39.8599 40.0972 40.1476C39.9193 40.4055 39.6792 40.6142 39.3992 40.7543C39.1192 40.8945 38.8083 40.9615 38.4955 40.9493C38.2821 40.9615 38.0682 40.9615 37.8548 40.9493H35.4043L35.4123 37.5021ZM32.209 35.1772V49.6634H36.8458C39.2483 49.5993 40.4816 49.5592 41.6508 49.0702C41.9932 48.9555 42.313 48.7819 42.5957 48.5571C42.9019 48.3322 43.1719 48.0619 43.3966 47.7554C43.9284 47.0927 44.2117 46.2645 44.1974 45.4146C44.2084 44.8889 44.0902 44.3685 43.853 43.8994C43.7361 43.6116 43.5522 43.356 43.3165 43.1538C42.6184 42.4739 41.7079 42.055 40.7378 41.9674C41.0788 41.885 41.4134 41.7778 41.7388 41.6467C42.0313 41.5025 42.3011 41.3161 42.5397 41.0936C42.6926 40.9813 42.83 40.8492 42.9481 40.7007C43.374 40.1326 43.5993 39.4389 43.5888 38.7286C43.5888 38.0336 43.3795 37.3547 42.9881 36.7806C42.8384 36.605 42.6751 36.4415 42.4996 36.2916C41.7469 35.5861 40.7458 35.2414 39.0561 35.1772H32.209Z" fill="#1D1D1B"/>
<path d="M52.7345 38.007L55.0248 44.0516H50.4761L52.7345 38.007ZM50.8765 35.1531L44.9824 49.6632H48.378L49.5552 46.4566H55.9618L57.1871 49.6632H60.5826L54.6805 35.1611L50.8765 35.1531Z" fill="#1D1D1B"/>
<path d="M61.3916 35.1531V42.833C61.3916 45.0536 61.5438 46.1439 62.1204 47.2101C62.438 47.8128 62.8902 48.334 63.4417 48.7333C63.8659 49.0611 64.3318 49.3307 64.8272 49.535C65.7422 49.8828 66.7155 50.0515 67.6941 50.032C69.0922 50.0798 70.4767 49.7443 71.6983 49.062C71.9817 48.9027 72.2498 48.7175 72.4991 48.5088C72.755 48.2825 72.9834 48.0269 73.1798 47.7472C73.8725 46.7273 74.2102 45.5074 74.1408 44.2761V35.1531H70.8734V44.3802C70.9338 44.8713 70.8846 45.3696 70.7293 45.8393C70.5964 46.1346 70.415 46.4056 70.1927 46.6409C70.0161 46.831 69.8139 46.9956 69.5921 47.13C69.1031 47.4042 68.5509 47.5451 67.9904 47.5388C67.2629 47.5731 66.5455 47.3582 65.9563 46.9296C65.3321 46.4239 64.9321 45.6922 64.8432 44.8933C64.7887 44.3606 64.7619 43.8254 64.7631 43.29V35.1531H61.3916Z" fill="#1D1D1B"/>
</g>
<defs>
<clipPath id="clip0_1750_7171">
<rect width="131.897" height="50" fill="white"/>
</clipPath>
</defs>
</svg>
